<svg xmlns="http://www.w3.org/2000/svg" viewBox="0 0 300 39" role="img">
  <title>Bridgestone Logo</title>
  <desc>Bridgestone offers reliable tires and fleet solutions for businesses.</desc>
  <g fill="#000000">
    <path d="m132.373 21.583-2.834 10.413c-.595.057-1.344.144-2.506.144-5.562 0-4.943-1.674-2.598-10.748 2.442-9.434 3.861-11.154 7.331-11.154 3.341 0 3.369 2.25 2.518 5.099h8.478c1.374-5.316.457-10.029-9.456-10.029-11.039 0-14.038 2.328-17.596 16.084-3.312 12.81-2.223 16.208 9.709 16.208 5.658 0 8.029-.418 11.474-1.044l3.991-14.973zm20.222 10.27c-1.104 0-1.493-.334-1.282-1.228l1.923-7.533h11.341l1.279-4.943h-11.344l1.287-5.023c.34-1.313 1.274-2.429 3.099-2.429h9.084l1.279-4.947h-13.198c-5.473 0-7.12.978-9.249 9.215l-3.919 15.063c-1.203 5.055.298 7.255 4.428 7.255h11.389c2.241 0 3.687-1.192 4.382-3.02l.935-2.41zm129.739 0c-1.104 0-1.492-.334-1.282-1.228l1.923-7.533h11.343l1.279-4.943h-11.343l1.287-5.023c.342-1.313 1.273-2.429 3.099-2.429h9.081L299 5.75h-13.195c-5.479 0-7.121.978-9.252 9.215l-3.916 15.063c-1.203 5.055.298 7.255 4.427 7.255h11.392c2.241 0 3.682-1.192 4.379-3.02l.935-2.41zm-186.806.044h-2.33l5.483-21.194c.704-.003.967-.03 2.714-.03 4.923 0 4.916 1.628 2.567 10.709-2.373 9.19-3.752 10.515-8.434 10.515m7.276-26.146H91.449l-7.908 30.585c-.136.524.171.946.682.946h10.113c12.701 0 14.841-2.427 18.326-15.9 3.028-11.706 1.161-15.63-9.858-15.63m158.829-.061c-6.541 0-9.579.14-11.366.061l-7.913 30.585c-.138.524.169.946.68.946h7.588l6.874-26.579c.7-.003 1.766-.061 2.841-.061 3.686 0 4.173 1.311 3.199 5.068l-5.337 20.626c-.134.524.172.946.683.946h7.586l5.579-21.572c1.931-7.471-1.352-10.02-10.414-10.02m-65.708.06-1.311 5.124h8.429c.084 0 .086.107.008.165-1.346 1.01-2.167 2.457-2.557 3.965l-5.529 21.333c-.134.523.173.946.684.946h8.143l6.844-26.409h4.174c2.342 0 3.766-.982 4.559-3.027l.797-2.096zM77.81 37.284l7.912-30.585c.135-.523-.17-.948-.681-.948h-8.02l-7.912 30.587c-.135.523.17.946.683.946zm148.38-4.86c-3.639 0-4.18-1.327-1.641-11.157 2.117-8.178 4.133-11.029 7.381-11.029 3.638 0 4.041 1.957 1.693 11.03-2.322 8.988-4.619 11.157-7.433 11.157m7.009-27.107c-9.548 0-13.69 1.7-17.443 16.203-3.246 12.566-.642 16.201 9.064 16.201 9.878 0 13.782-2.031 17.444-16.201 2.652-10.257 2.112-16.203-9.065-16.203"></path>
    <path fill="#FF0000" d="M5.962 21.752 10.9 4.43c.479-1.78 2.448-3.406 4.438-3.406h15.104c.254 0 .334.33.14.465-7.855 5.374-17.327 13.35-24.193 20.488-.18.19-.5.04-.428-.225"></path>
    <path d="m17.895 32.154 4.887-17.096c.073-.259-.205-.448-.412-.268C15.175 20.974 6.5 30.01 1.07 36.844c-.138.174-.067.438.17.438h21.158c8.922 0 13.804-2.764 15.575-9.367 1.443-5.38-1.378-9.048-5.877-9.994-.08-.018-.152-.169 0-.195 3.807-.651 7.646-2.184 9.016-7.736C42.593 3.98 38 .686 32.714 1.024l-8.086 28.313c-.437 1.531-2.075 2.817-3.63 2.817zm45.975-7.515c-.283-.94-.588-1.626-1.036-2.185-.059-.073-.072-.17.034-.202 3.624-1.118 5.996-3.408 7-7.288 1.327-5.128-1.908-9.213-10.075-9.213H47.654l-7.913 30.585c-.136.524.17.946.683.946h7.586l6.873-26.58c.735-.002 1.436-.03 3.183-.03 2.924 0 4.004 1.805 3.375 4.239-.83 3.209-3.317 5.01-6.271 5.01h-1.118l3.157 15.26c.375 1.488 1.124 2.101 2.832 2.101h6.774zM167.113 26.6c-3.212 7.682.977 11.16 9.506 11.16 7.787 0 12.107-1.851 13.96-9.01.632-2.45.227-5.09-1.277-6.724-2.913-3.165-8.512-3.757-10.48-5.592-1.001-.933-.993-2.238-.702-3.362.534-2.064 1.92-3.188 4.166-3.188 3.519 0 3.608 2.166 2.744 4.735h7.551c1.776-5.366-.551-9.572-9.446-9.572-7.483 0-11.523 2.938-12.973 8.563-.4 1.543-.253 4.061.671 5.64 2.054 3.519 7.499 3.957 10.512 6.051 1.308.91 1.352 2.14 1.001 3.49-.678 2.627-1.997 3.878-4.622 3.878-2.525 0-4.04-1.468-2.596-6.07z"></path>
  </g>
</svg>
