<svg xmlns="http://www.w3.org/2000/svg" viewBox="0 0 22 22" width="24" height="24" fill="none">
  <path d="M11 5.917a5.083 5.083 0 1 0 0 10.165 5.083 5.083 0 0 0 0-10.165m0 .727a4.357 4.357 0 1 1-.001 8.714A4.357 4.357 0 0 1 11 6.644" fill="currentColor"/>
  <path d="M11 .835C5.386.835.835 5.386.835 11S5.386 21.165 11 21.165 21.165 16.614 21.165 11 16.614.835 11 .835m0 1.454A8.71 8.71 0 0 1 19.71 11 8.71 8.71 0 0 1 11 19.71 8.71 8.71 0 0 1 2.29 11 8.71 8.71 0 0 1 11 2.29" fill="currentColor"/>
  <path d="M11 8.25a2.75 2.75 0 1 0 0 5.5 2.75 2.75 0 0 0 0-5.5m0 .727a2.023 2.023 0 1 1 0 4.046 2.023 2.023 0 0 1 0-4.046" fill="currentColor"/>
</svg>
